<svg xmlns="http://www.w3.org/2000/svg" viewBox="0 0 559.15 1100.68"><title>Asset 1revision icon</title><g id="Layer_2" data-name="Layer 2"><g id="Layer_1-2" data-name="Layer 1"><path d="M524.35,414.88a279.63,279.63,0,0,0-442.46-333,279.89,279.89,0,0,0-47.09,333,280.47,280.47,0,0,0,.08,270.77,279.64,279.64,0,0,0,442.39,333.14,279.91,279.91,0,0,0,47-333.14,280.47,280.47,0,0,0,.08-270.77ZM17.92,279.58C17.92,135.3,135.3,17.92,279.58,17.92S541.23,135.3,541.23,279.58a260,260,0,0,1-27.8,117.27,282.36,282.36,0,0,0-36.16-44.35,279.59,279.59,0,0,0-395.38,0,281.86,281.86,0,0,0-36.17,44.35A260.08,260.08,0,0,1,17.92,279.58ZM503.37,685.65c-45.93,75.59-129.06,126.2-223.79,126.2s-177.87-50.61-223.8-126.2c45.93-75.6,129.06-126.21,223.8-126.21S457.44,610.05,503.37,685.65ZM55.7,414.88c45.9-75.67,129.08-126.34,223.88-126.34s178,50.67,223.88,126.34c-45.91,75.68-129.09,126.35-223.88,126.35S101.6,490.56,55.7,414.88ZM17.92,550.19a260.08,260.08,0,0,1,27.8-117.27,283.84,283.84,0,0,0,63.86,68.67c32,24.56,32,72.94,0,97.5A284,284,0,0,0,45.8,667.63,260.1,260.1,0,0,1,17.92,550.19ZM541.23,821.1c0,144.28-117.38,261.66-261.65,261.66S17.92,965.38,17.92,821.1A260.1,260.1,0,0,1,45.8,703.66a282.53,282.53,0,0,0,36.09,44.22,279.57,279.57,0,0,0,395.38,0,281.9,281.9,0,0,0,36.08-44.22A260,260,0,0,1,541.23,821.1Zm-64-197.69a282.07,282.07,0,0,0-27.7-24.32c-31.95-24.56-31.95-72.94,0-97.5a283.31,283.31,0,0,0,63.86-68.67,261.27,261.27,0,0,1-.08,234.71A281.9,281.9,0,0,0,477.27,623.41Z"/></g></g></svg>